<svg width="118" height="75" viewBox="0 0 118 75" fill="none" xmlns="http://www.w3.org/2000/svg">
<g clip-path="url(#clip0_12_315)">
<path d="M82.4723 16.8819H98.524" stroke="#212121" stroke-width="3.32103" stroke-linecap="round"/>
<path d="M82.4723 58.6716H100.461" stroke="#212121" stroke-width="3.32103" stroke-linecap="round"/>
<path d="M99.631 16.6052V58.3948" stroke="#212121" stroke-width="3.32103" stroke-linecap="round"/>
<path d="M99.631 16.8819L113.469 30.4428" stroke="#212121" stroke-width="3.32103" stroke-linecap="round"/>
<path d="M99.9077 58.1181L113.745 44.2805" stroke="#212121" stroke-width="3.32103" stroke-linecap="round"/>
<path d="M4.15125 26.5682H27.1217" stroke="#212121" stroke-width="3.32103" stroke-linecap="round"/>
<path d="M10.7933 19.3727H60.3321" stroke="#212121" stroke-width="3.32103" stroke-linecap="round"/>
<path d="M37.0848 33.7639H75" stroke="#212121" stroke-width="3.32103" stroke-linecap="round"/>
<path d="M1.66046 40.9594H68.6346" stroke="#212121" stroke-width="3.32103" stroke-linecap="round"/>
<path d="M37.9151 12.1771H56.4575" stroke="#212121" stroke-width="3.32103" stroke-linecap="round"/>
<path d="M26.0147 12.4539H30.9963" stroke="#212121" stroke-width="3.32103" stroke-linecap="round"/>
<path d="M72.7859 16.6052H59.7786" stroke="#212121" stroke-width="3.32103" stroke-linecap="round"/>
<path d="M10.7933 48.155H17.1586" stroke="#212121" stroke-width="3.32103" stroke-linecap="round"/>
<path d="M33.4871 48.155H63.3764" stroke="#212121" stroke-width="3.32103" stroke-linecap="round"/>
<path d="M24.9077 55.3505H42.3431" stroke="#212121" stroke-width="3.32103" stroke-linecap="round"/>
<path d="M54.2435 58.3948H71.679" stroke="#212121" stroke-width="3.32103" stroke-linecap="round"/>
<path d="M7.47229 62.5461H60.8856" stroke="#212121" stroke-width="3.32103" stroke-linecap="round"/>
<path d="M37.9151 28.2288C38.8322 28.2288 39.5756 27.4854 39.5756 26.5683C39.5756 25.6512 38.8322 24.9078 37.9151 24.9078C36.998 24.9078 36.2546 25.6512 36.2546 26.5683C36.2546 27.4854 36.998 28.2288 37.9151 28.2288Z" fill="#212121"/>
<path d="M57.8413 66.6974C62.4267 66.6974 66.1439 62.9802 66.1439 58.3948C66.1439 53.8094 62.4267 50.0922 57.8413 50.0922C53.2559 50.0922 49.5387 53.8094 49.5387 58.3948C49.5387 62.9802 53.2559 66.6974 57.8413 66.6974Z" fill="#212121"/>
<path d="M57.8413 24.9078C62.4267 24.9078 66.1439 21.1906 66.1439 16.6052C66.1439 12.0198 62.4267 8.30261 57.8413 8.30261C53.2559 8.30261 49.5387 12.0198 49.5387 16.6052C49.5387 21.1906 53.2559 24.9078 57.8413 24.9078Z" fill="#212121"/>
<path d="M99.631 24.9078C104.216 24.9078 107.934 21.1906 107.934 16.6052C107.934 12.0198 104.216 8.30261 99.631 8.30261C95.0456 8.30261 91.3284 12.0198 91.3284 16.6052C91.3284 21.1906 95.0456 24.9078 99.631 24.9078Z" fill="#212121"/>
<path d="M99.631 66.6974C104.216 66.6974 107.934 62.9802 107.934 58.3948C107.934 53.8094 104.216 50.0922 99.631 50.0922C95.0456 50.0922 91.3284 53.8094 91.3284 58.3948C91.3284 62.9802 95.0456 66.6974 99.631 66.6974Z" fill="#212121"/>
<path d="M78.8745 48.4317C84.9883 48.4317 89.9446 43.4755 89.9446 37.3616C89.9446 31.2478 84.9883 26.2915 78.8745 26.2915C72.7606 26.2915 67.8044 31.2478 67.8044 37.3616C67.8044 43.4755 72.7606 48.4317 78.8745 48.4317Z" fill="#C00000"/>
<path d="M24.3542 49.8155C25.2713 49.8155 26.0148 49.072 26.0148 48.155C26.0148 47.2379 25.2713 46.4944 24.3542 46.4944C23.4372 46.4944 22.6937 47.2379 22.6937 48.155C22.6937 49.072 23.4372 49.8155 24.3542 49.8155Z" fill="#212121"/>
<path d="M47.8782 28.2288C48.7953 28.2288 49.5387 27.4854 49.5387 26.5683C49.5387 25.6512 48.7953 24.9078 47.8782 24.9078C46.9612 24.9078 46.2177 25.6512 46.2177 26.5683C46.2177 27.4854 46.9612 28.2288 47.8782 28.2288Z" fill="#212121"/>
<path d="M112.362 38.4687C112.973 38.4687 113.469 37.973 113.469 37.3616C113.469 36.7503 112.973 36.2546 112.362 36.2546C111.75 36.2546 111.255 36.7503 111.255 37.3616C111.255 37.973 111.75 38.4687 112.362 38.4687Z" fill="#212121"/>
<path d="M116.513 38.4687C117.124 38.4687 117.62 37.973 117.62 37.3616C117.62 36.7503 117.124 36.2546 116.513 36.2546C115.902 36.2546 115.406 36.7503 115.406 37.3616C115.406 37.973 115.902 38.4687 116.513 38.4687Z" fill="#212121"/>
<path d="M82.1955 20.7564C84.4882 20.7564 86.3468 18.8978 86.3468 16.6051C86.3468 14.3125 84.4882 12.4539 82.1955 12.4539C79.9028 12.4539 78.0443 14.3125 78.0443 16.6051C78.0443 18.8978 79.9028 20.7564 82.1955 20.7564Z" fill="#212121"/>
<path d="M75.8302 8.30258C78.1229 8.30258 79.9815 6.44399 79.9815 4.15129C79.9815 1.8586 78.1229 0 75.8302 0C73.5376 0 71.679 1.8586 71.679 4.15129C71.679 6.44399 73.5376 8.30258 75.8302 8.30258Z" fill="#212121"/>
<path d="M113.469 12.4539C115.761 12.4539 117.62 10.5953 117.62 8.3026C117.62 6.0099 115.761 4.15131 113.469 4.15131C111.176 4.15131 109.317 6.0099 109.317 8.3026C109.317 10.5953 111.176 12.4539 113.469 12.4539Z" fill="#212121"/>
<path d="M113.469 70.8487C115.761 70.8487 117.62 68.9901 117.62 66.6974C117.62 64.4047 115.761 62.5461 113.469 62.5461C111.176 62.5461 109.317 64.4047 109.317 66.6974C109.317 68.9901 111.176 70.8487 113.469 70.8487Z" fill="#212121"/>
<path d="M113.469 48.4317C115.761 48.4317 117.62 46.5731 117.62 44.2804C117.62 41.9877 115.761 40.1292 113.469 40.1292C111.176 40.1292 109.317 41.9877 109.317 44.2804C109.317 46.5731 111.176 48.4317 113.469 48.4317Z" fill="#212121"/>
<path d="M113.469 34.5941C115.761 34.5941 117.62 32.7355 117.62 30.4428C117.62 28.1501 115.761 26.2915 113.469 26.2915C111.176 26.2915 109.317 28.1501 109.317 30.4428C109.317 32.7355 111.176 34.5941 113.469 34.5941Z" fill="#212121"/>
<path d="M75.8302 75C78.1229 75 79.9815 73.1414 79.9815 70.8487C79.9815 68.556 78.1229 66.6974 75.8302 66.6974C73.5376 66.6974 71.679 68.556 71.679 70.8487C71.679 73.1414 73.5376 75 75.8302 75Z" fill="#212121"/>
<path d="M99.631 41.5129C101.924 41.5129 103.782 39.6543 103.782 37.3616C103.782 35.0689 101.924 33.2103 99.631 33.2103C97.3383 33.2103 95.4797 35.0689 95.4797 37.3616C95.4797 39.6543 97.3383 41.5129 99.631 41.5129Z" fill="#212121"/>
<path d="M82.1955 62.5461C84.4882 62.5461 86.3468 60.6875 86.3468 58.3948C86.3468 56.1021 84.4882 54.2435 82.1955 54.2435C79.9028 54.2435 78.0443 56.1021 78.0443 58.3948C78.0443 60.6875 79.9028 62.5461 82.1955 62.5461Z" fill="#212121"/>
<path d="M19.9262 55.3506C19.9262 56.2677 19.1828 57.0111 18.2657 57.0111C17.3486 57.0111 16.6052 56.2677 16.6052 55.3506C16.6052 54.4334 17.3486 53.6901 18.2657 53.6901C19.1828 53.6901 19.9262 54.4334 19.9262 55.3506Z" fill="#212121"/>
<path d="M28.5055 35.4244C29.4226 35.4244 30.166 34.6809 30.166 33.7638C30.166 32.8468 29.4226 32.1033 28.5055 32.1033C27.5884 32.1033 26.845 32.8468 26.845 33.7638C26.845 34.6809 27.5884 35.4244 28.5055 35.4244Z" fill="#212121"/>
<path d="M75.0756 32.7905C74.4541 33.6286 74.5802 34.8514 75.3572 35.5217C76.1342 36.192 77.2679 36.056 77.8893 35.2179C78.5107 34.3798 78.3846 33.157 77.6077 32.4867C76.8307 31.8164 75.697 31.9524 75.0756 32.7905Z" fill="#FCFAF3"/>
<path d="M83.4385 35.9367C84.4334 35.9367 85.24 35.0668 85.24 33.9936C85.24 32.9204 84.4334 32.0504 83.4385 32.0504C82.4435 32.0504 81.637 32.9204 81.637 33.9936C81.637 35.0668 82.4435 35.9367 83.4385 35.9367Z" fill="#FCFAF3"/>
<path d="M74.3106 43.4503C75.3055 43.4503 76.1121 42.5803 76.1121 41.5071C76.1121 40.4339 75.3055 39.564 74.3106 39.564C73.3157 39.564 72.5091 40.4339 72.5091 41.5071C72.5091 42.5803 73.3157 43.4503 74.3106 43.4503Z" fill="#FCFAF3"/>
<path d="M81.5167 43.4503C82.5116 43.4503 83.3182 42.5803 83.3182 41.5071C83.3182 40.4339 82.5116 39.564 81.5167 39.564C80.5217 39.564 79.7151 40.4339 79.7151 41.5071C79.7151 42.5803 80.5217 43.4503 81.5167 43.4503Z" fill="#FCFAF3"/>
<path d="M74.4307 41.6366L76.5927 34.123L81.3965 41.6366L83.3183 34.123" stroke="#FCFAF3" stroke-width="1.10701" stroke-linecap="round"/>
</g>
<defs>
<clipPath id="clip0_12_315">
<rect width="117.62" height="75" fill="white"/>
</clipPath>
</defs>
</svg>
