<svg width="90" height="82" viewBox="0 0 90 82" fill="none" xmlns="http://www.w3.org/2000/svg">
<path d="M55.3116 17.9833H43.2233L44.6689 11.1537H64.1336C65.3136 11.1537 66.0403 10.5605 66.3059 9.38191L67.8141 2.16205C67.9469 1.50641 67.857 0.983461 67.5484 0.585393C67.2397 0.195131 66.7396 0 66.0403 0H37.1752C37.1049 0 37.0346 3.57645e-07 36.9643 0.0156108H24.9736C23.5749 0.0156108 22.4302 1.15908 22.4302 2.55622V3.15722C22.4302 4.55436 23.5749 5.69783 24.9736 5.69783H40.5392C41.1526 5.69783 41.6488 6.19346 41.6488 6.80618V7.1418C41.6488 7.75451 41.1526 8.25014 40.5392 8.25014H33.6316L33.0221 11.1108H12.6626C11.2639 11.1108 10.1191 12.2542 10.1191 13.6514V14.2524C10.1191 15.6495 11.2639 16.793 12.6626 16.793H38.9568C39.5702 16.8008 40.0586 17.2964 40.0586 17.9091V18.237C40.0586 18.8497 39.5624 19.3453 38.949 19.3453H31.2717L30.0293 25.1836H17.7925C16.3938 25.1836 15.2491 26.3193 15.2491 27.7242V28.3174C15.2491 29.7185 16.3938 30.8619 17.7925 30.8619H36.2805C36.8939 30.8619 37.3979 31.3576 37.3979 31.9703V32.2981C37.3979 32.9108 36.8939 33.4143 36.2805 33.4143H28.2829L25.9973 44.1699C25.8644 44.8255 25.9543 45.3563 26.2629 45.7465C26.5716 46.1446 27.0717 46.3397 27.771 46.3397H35.3897C36.5775 46.3397 37.2963 45.7465 37.562 44.568L41.0471 28.0911H53.5964C54.7763 28.0911 55.503 27.5057 55.7609 26.3193L57.0737 20.1531C57.2065 19.4975 57.1166 18.9746 56.8158 18.5765C56.5071 18.1862 56.0071 17.9911 55.2999 17.9911L55.3116 17.9833Z" fill="#F90A08"/>
<path d="M89.0129 35.4555C88.7277 35.0652 88.251 34.8701 87.5946 34.8701H80.3862C79.2766 34.8701 78.5968 35.4555 78.3546 36.6419L72.748 64.4715L58.6319 36.2477C58.1357 35.3345 57.4169 34.874 56.4753 34.874H49.1418C48.0322 34.874 47.3524 35.4594 47.1023 36.6458L38.6593 79.04C38.5421 79.6956 38.6163 80.2264 38.9093 80.6167C39.1945 81.0147 39.6712 81.2099 40.3276 81.2099H47.536C48.6456 81.2099 49.3254 80.6167 49.5676 79.4381L55.1195 51.0855L69.4153 79.8283C69.9115 80.7494 70.6304 81.2099 71.572 81.2099H78.7882C79.89 81.2099 80.5698 80.6167 80.8199 79.4381L89.2629 37.0361C89.3801 36.3804 89.2981 35.8575 89.0129 35.4594V35.4555Z" fill="#F90A08"/>
<path d="M17.9801 0.0117188H6.06764C4.66292 0.0117188 3.52417 1.14919 3.52417 2.55233V3.14943C3.52417 4.55257 4.66292 5.69004 6.06764 5.69004H17.9801C19.3849 5.69004 20.5236 4.55257 20.5236 3.14943V2.55233C20.5236 1.14919 19.3849 0.0117188 17.9801 0.0117188Z" fill="#F90A08"/>
<path d="M2.54738 11.1029H4.50089C5.9035 11.1029 7.04435 12.2425 7.04435 13.6435V14.2445C7.04435 15.6456 5.9035 16.7851 4.50089 16.7851H2.54347C1.14085 16.7851 0 15.6456 0 14.2445V13.6435C0 12.2425 1.14085 11.1029 2.54347 11.1029H2.54738Z" fill="#F90A08"/>
</svg>
