<svg width="856" height="844" viewBox="0 0 856 844" fill="none" xmlns="http://www.w3.org/2000/svg">
<path d="M26.4971 41.8957C-24.2655 104.975 -13.9819 196.849 49.4305 247.297C112.843 297.67 205.309 287.445 256.072 224.441C306.834 161.437 296.551 69.4879 233.139 19.115C169.726 -31.258 77.1781 -21.1081 26.4971 41.8957ZM709.018 278.498C790.14 278.498 856 213.088 856 132.417C856 51.6694 790.14 -13.7402 709.018 -13.7402C627.814 -13.7402 561.953 51.6694 561.953 132.417C561.953 213.088 627.732 278.498 709.018 278.498ZM-36.0175 843.352C45.1863 843.352 111.047 777.942 111.047 697.27C111.047 616.598 45.2679 551.189 -35.9359 551.189C-117.14 551.189 -183 616.598 -183 697.27C-183 777.942 -117.221 843.352 -36.0175 843.352ZM552.159 843.352C633.363 843.352 699.142 777.942 699.142 697.27C699.142 616.598 633.363 551.189 552.159 551.189C470.955 551.189 405.094 616.598 405.094 697.27C405.094 777.942 470.955 843.352 552.159 843.352Z" fill="#F0F0ED"/>
<path fill-rule="evenodd" clip-rule="evenodd" d="M134.529 42.168L524.368 603.892L655.371 131.835C661.551 109.568 686.154 96.1319 710.325 101.825C734.495 107.517 749.08 130.183 742.9 152.449L560.351 810.25L166.063 242.116L17.1792 718.583C10.2778 740.668 -14.7518 753.419 -38.7262 747.061C-62.7005 740.703 -76.5409 717.645 -69.6396 695.559L134.529 42.168Z" fill="#F0F0ED"/>
</svg>
