<svg width="111" height="68" viewBox="0 0 111 68" fill="none" xmlns="http://www.w3.org/2000/svg">
<path d="M105.339 30.0138C108.467 30.0138 111.004 27.5176 111.004 24.4385C111.004 21.3594 108.467 18.8633 105.339 18.8633C102.21 18.8633 99.6738 21.3594 99.6738 24.4385C99.6738 27.5176 102.21 30.0138 105.339 30.0138Z" fill="#292524"/>
<path d="M105.339 48.3106C108.467 48.3106 111.004 45.8145 111.004 42.7354C111.004 39.6563 108.467 37.1602 105.339 37.1602C102.21 37.1602 99.6738 39.6563 99.6738 42.7354C99.6738 45.8145 102.21 48.3106 105.339 48.3106Z" fill="#292524"/>
<path d="M103.985 35.1296C104.814 35.1296 105.486 34.4683 105.486 33.6527C105.486 32.837 104.814 32.1758 103.985 32.1758C103.156 32.1758 102.484 32.837 102.484 33.6527C102.484 34.4683 103.156 35.1296 103.985 35.1296Z" fill="#292524"/>
<path d="M33.4852 10.9184C34.8334 10.9184 35.9264 9.84276 35.9264 8.51586C35.9264 7.18895 34.8334 6.11328 33.4852 6.11328C32.1369 6.11328 31.0439 7.18895 31.0439 8.51586C31.0439 9.84276 32.1369 10.9184 33.4852 10.9184Z" fill="#292524"/>
<path d="M109.506 35.1296C110.334 35.1296 111.006 34.4683 111.006 33.6527C111.006 32.837 110.334 32.1758 109.506 32.1758C108.677 32.1758 108.005 32.837 108.005 33.6527C108.005 34.4683 108.677 35.1296 109.506 35.1296Z" fill="#292524"/>
<path d="M94.5918 56.8014C93.7477 57.2339 92.6811 57.102 91.9764 56.4111C91.5449 55.9865 91.3252 55.4221 91.3252 54.8603C91.3252 54.2986 91.5449 53.7342 91.9764 53.3096L92.164 53.125C93.2894 54.0955 94.1416 55.3588 94.5918 56.8014Z" fill="#292524"/>
<path d="M104.34 46.4416C104.34 47.0033 104.125 47.5677 103.688 47.9923L103.627 48.053L95.3839 56.1627C94.8613 54.7253 93.9797 53.4568 92.8408 52.4625L100.534 44.8909C101.4 44.0364 102.823 44.0364 103.691 44.8909C104.128 45.3155 104.342 45.8798 104.342 46.4416H104.34Z" fill="#292524"/>
<path d="M92.163 14.5754L91.9754 14.3908C91.1072 13.5363 91.1072 12.1411 91.9754 11.2893C92.4068 10.8594 92.9803 10.6484 93.5511 10.6484C93.9048 10.6484 94.2639 10.7328 94.5908 10.899C94.1406 12.3416 93.2885 13.6101 92.163 14.5754Z" fill="#292524"/>
<path d="M103.687 22.8134C103.25 23.2433 102.682 23.4543 102.111 23.4543C101.541 23.4543 100.962 23.2433 100.53 22.8134L92.8369 15.2417C93.9758 14.2527 94.8574 12.9842 95.3853 11.5469L103.232 19.2636L103.687 19.7119C104.555 20.5664 104.555 21.9616 103.687 22.8134Z" fill="#292524"/>
<path d="M49.8172 6.32031C50.1039 6.99546 50.262 7.7339 50.262 8.51191C50.262 9.28991 50.1039 10.031 49.8172 10.7088H47.3304C46.1031 10.7088 45.1035 9.71979 45.1035 8.51191C45.1035 7.90797 45.3527 7.36204 45.7601 6.96645C46.162 6.56558 46.7194 6.32031 47.3304 6.32031H49.8172Z" fill="#292524"/>
<path d="M77.6246 8.51191C77.6246 9.27145 77.721 10.0073 77.9032 10.7088H50.8379C51.0871 10.0204 51.2211 9.27936 51.2211 8.51191C51.2211 7.74445 51.0871 7.00865 50.8432 6.32031H77.8979C77.721 7.02183 77.6246 7.75764 77.6246 8.51191Z" fill="#292524"/>
<path d="M82.149 8.51191C82.149 9.11585 81.8998 9.66177 81.4925 10.0626C81.0852 10.4635 80.5305 10.7088 79.9168 10.7088H78.8958C78.6895 10.0099 78.585 9.27145 78.585 8.51191C78.585 7.75236 78.6895 7.01656 78.8958 6.32031H79.9168C81.1441 6.32031 82.149 7.30666 82.149 8.51191Z" fill="#292524"/>
<path d="M77.6242 59.1911C77.6242 60.4227 77.8788 61.599 78.3343 62.6697H58.5364C57.3091 62.6697 56.3096 61.6834 56.3096 60.4781C56.3096 59.8742 56.5588 59.323 56.9607 58.9274C57.3681 58.5318 57.9228 58.2812 58.5364 58.2812H77.6724C77.6403 58.5819 77.6242 58.8852 77.6242 59.1911Z" fill="#292524"/>
<path d="M90.424 60.4781C90.424 61.0821 90.1748 61.628 89.7729 62.0288C89.3655 62.4244 88.8108 62.6697 88.1972 62.6697H79.3889C78.8717 61.6174 78.585 60.4359 78.585 59.1911C78.585 58.8852 78.6037 58.5793 78.6386 58.2812H88.1999C89.4272 58.2812 90.4267 59.2702 90.4267 60.4781H90.424Z" fill="#292524"/>
<path d="M89.3144 15.7822V16.1777C88.5131 16.4336 87.661 16.5733 86.7766 16.5733C85.9995 16.5733 85.2492 16.4652 84.5391 16.2674V15.7822C84.5391 14.4846 85.611 13.4297 86.924 13.4297C87.5806 13.4297 88.1781 13.6934 88.6096 14.118C89.0464 14.5479 89.3144 15.1307 89.3144 15.7822Z" fill="#292524"/>
<path d="M89.3144 17.1641V28.3647C88.5828 28.0534 87.7708 27.8794 86.924 27.8794C86.0772 27.8794 85.2706 28.0482 84.5391 28.3647V17.2432C85.2572 17.4225 86.0049 17.5175 86.7766 17.5175C87.6583 17.5175 88.5104 17.3961 89.3144 17.1641Z" fill="#292524"/>
<path d="M86.924 28.8242C87.7923 28.8242 88.6015 29.0352 89.3144 29.4097V38.2974C88.6015 38.664 87.7923 38.8776 86.924 38.8776C86.0558 38.8776 85.2519 38.6692 84.5391 38.2974V29.4097C85.2519 29.0378 86.0612 28.8242 86.924 28.8242Z" fill="#292524"/>
<path d="M89.3144 39.3281V50.5393C88.5104 50.3072 87.6583 50.1859 86.7766 50.1859C86.0049 50.1859 85.2572 50.2808 84.5391 50.4601V39.3308C85.2706 39.6472 86.0772 39.816 86.924 39.816C87.7708 39.816 88.5801 39.642 89.3144 39.3308V39.3281Z" fill="#292524"/>
<path d="M86.7737 51.1289C87.6607 51.1289 88.5129 51.2713 89.3114 51.5245V53.4471C89.3114 54.7394 88.2342 55.7996 86.9211 55.7996C85.608 55.7996 84.5361 54.7394 84.5361 53.4471V51.4348C85.2463 51.237 85.9966 51.1289 86.7737 51.1289Z" fill="#292524"/>
<path d="M38.9028 30.8323H30.6117L31.6032 26.2171H44.9536C45.7629 26.2171 46.2613 25.8162 46.4436 25.0197L47.4779 20.1407C47.5691 19.6977 47.5074 19.3443 47.2957 19.0753C47.084 18.8116 46.741 18.6797 46.2613 18.6797H26.4634C26.4152 18.6797 26.367 18.6797 26.3187 18.6902H18.0946C17.1353 18.6902 16.3501 19.463 16.3501 20.4071V20.8133C16.3501 21.7574 17.1353 22.5301 18.0946 22.5301H28.7707C29.1914 22.5301 29.5317 22.8651 29.5317 23.2791V23.5059C29.5317 23.92 29.1914 24.2549 28.7707 24.2549H24.0329L23.6149 26.1881H9.65076C8.69141 26.1881 7.90625 26.9608 7.90625 27.9049V28.3111C7.90625 29.2552 8.69141 30.028 9.65076 30.028H27.6854C28.1061 30.0332 28.4411 30.3682 28.4411 30.7822V31.0038C28.4411 31.4178 28.1008 31.7528 27.68 31.7528H22.4144L21.5622 35.6982H13.1693C12.2099 35.6982 11.4247 36.4656 11.4247 37.415V37.8159C11.4247 38.7627 12.2099 39.5354 13.1693 39.5354H25.8498C26.2705 39.5354 26.6162 39.8704 26.6162 40.2844V40.5059C26.6162 40.92 26.2705 41.2602 25.8498 41.2602H20.3644L18.7967 48.5286C18.7056 48.9717 18.7672 49.3303 18.9789 49.5941C19.1906 49.8631 19.5336 49.9949 20.0133 49.9949H25.2388C26.0534 49.9949 26.5465 49.5941 26.7287 48.7976L29.1191 37.6629H37.7264C38.5357 37.6629 39.0341 37.2673 39.211 36.4656L40.1113 32.2987C40.2025 31.8556 40.1408 31.5022 39.9345 31.2332C39.7228 30.9695 39.3798 30.8376 38.8947 30.8376L38.9028 30.8323Z" fill="#292524"/>
<path d="M78.0084 19.0753C77.8128 18.8116 77.4859 18.6797 77.0357 18.6797H72.0915C71.3305 18.6797 70.8642 19.0753 70.6981 19.877L66.8527 38.6836L57.1708 19.6107C56.8304 18.9935 56.3374 18.6823 55.6915 18.6823H50.6617C49.9006 18.6823 49.4344 19.0779 49.2629 19.8797L43.4719 48.5286C43.3915 48.9717 43.4425 49.3303 43.6434 49.5941C43.8391 49.8631 44.166 49.9949 44.6162 49.9949H49.5603C50.3214 49.9949 50.7876 49.5941 50.9538 48.7976L54.7617 29.6376L64.5668 49.0613C64.9072 49.6837 65.4002 49.9949 66.0461 49.9949H70.9955C71.7512 49.9949 72.2175 49.5941 72.389 48.7976L78.1799 20.1434C78.2603 19.7003 78.204 19.3469 78.0084 19.0779V19.0753Z" fill="#292524"/>
<path d="M13.2978 18.6875H5.12732C4.16386 18.6875 3.38281 19.4562 3.38281 20.4044V20.8079C3.38281 21.7561 4.16386 22.5248 5.12732 22.5248H13.2978C14.2613 22.5248 15.0424 21.7561 15.0424 20.8079V20.4044C15.0424 19.4562 14.2613 18.6875 13.2978 18.6875Z" fill="#292524"/>
<path d="M2.71301 26.1836H4.05288C5.01491 26.1836 5.79739 26.9537 5.79739 27.9005V28.3066C5.79739 29.2534 5.01491 30.0235 4.05288 30.0235H2.71033C1.7483 30.0235 0.96582 29.2534 0.96582 28.3066V27.9005C0.96582 26.9537 1.7483 26.1836 2.71033 26.1836H2.71301Z" fill="#292524"/>
<path d="M94.9606 8.51397C94.9606 9.34472 94.832 10.1438 94.5908 10.9007C94.1406 12.3433 93.2884 13.6119 92.1629 14.5771C91.3429 15.2892 90.3756 15.8351 89.3117 16.1806C88.5105 16.4364 87.6583 16.5762 86.774 16.5762C85.9969 16.5762 85.2465 16.468 84.5364 16.2703C81.8111 15.5107 79.6593 13.3956 78.8929 10.7108C78.6865 10.0119 78.582 9.27351 78.582 8.51397C78.582 7.75443 78.6865 7.01862 78.8929 6.32237C79.8603 2.93873 83.0224 0.457031 86.774 0.457031C91.2947 0.457031 94.9606 4.06221 94.9606 8.51397Z" fill="#292524"/>
<path d="M94.9608 59.1911C94.9608 63.6402 91.2976 67.248 86.7742 67.248C83.5157 67.248 80.7046 65.3756 79.3889 62.6697C78.8717 61.6174 78.585 60.4359 78.585 59.1911C78.585 58.8852 78.6037 58.5793 78.6386 58.2812C79.011 55.0005 81.3933 52.3131 84.5393 51.4348C85.2495 51.237 85.9998 51.1289 86.7769 51.1289C87.6639 51.1289 88.5161 51.2713 89.3146 51.5245C90.3785 51.8673 91.3459 52.4159 92.1659 53.1227C93.2914 54.0932 94.1435 55.3565 94.5937 56.7991C94.8322 57.5534 94.9635 58.3551 94.9635 59.1885L94.9608 59.1911Z" fill="#292524"/>
<path d="M92.0289 33.847C92.0289 35.7749 90.9275 37.4495 89.3116 38.2935C88.5988 38.6601 87.7895 38.8737 86.9213 38.8737C86.0531 38.8737 85.2491 38.6653 84.5363 38.2935C82.9178 37.4495 81.8164 35.7749 81.8164 33.847C81.8164 31.9191 82.9178 30.2445 84.5363 29.4058C85.2491 29.0339 86.0584 28.8203 86.9213 28.8203C87.7842 28.8203 88.5988 29.0313 89.3116 29.4058C90.9248 30.2497 92.0289 31.9244 92.0289 33.847Z" fill="#292524"/>
<path d="M50.2645 8.51169C50.2645 9.2897 50.1063 10.0308 49.8196 10.7086C48.9487 12.7683 46.8826 14.2162 44.4735 14.2162C41.2739 14.2162 38.6826 11.6606 38.6826 8.51169C38.6826 5.36277 41.2739 2.8125 44.4735 2.8125C46.8826 2.8125 48.9487 4.26565 49.8196 6.3201C50.1063 6.99525 50.2645 7.73369 50.2645 8.51169Z" fill="#292524"/>
</svg>
