<svg width="130" height="80" viewBox="0 0 130 80" fill="none" xmlns="http://www.w3.org/2000/svg">
<path d="M123.079 35.3607C126.742 35.3607 129.712 32.3947 129.712 28.736C129.712 25.0773 126.742 22.1113 123.079 22.1113C119.417 22.1113 116.447 25.0773 116.447 28.736C116.447 32.3947 119.417 35.3607 123.079 35.3607Z" fill="#FCAB10"/>
<path d="M123.079 57.099C126.742 57.099 129.712 54.133 129.712 50.4743C129.712 46.8156 126.742 43.8496 123.079 43.8496C119.417 43.8496 116.447 46.8156 116.447 50.4743C116.447 54.133 119.417 57.099 123.079 57.099Z" fill="#FCAB10"/>
<path d="M121.495 41.4395C122.465 41.4395 123.252 40.6538 123.252 39.6846C123.252 38.7154 122.465 37.9297 121.495 37.9297C120.525 37.9297 119.738 38.7154 119.738 39.6846C119.738 40.6538 120.525 41.4395 121.495 41.4395Z" fill="#FCAB10"/>
<path d="M38.9576 12.6686C40.5361 12.6686 41.8157 11.3905 41.8157 9.81381C41.8157 8.23713 40.5361 6.95898 38.9576 6.95898C37.3792 6.95898 36.0996 8.23713 36.0996 9.81381C36.0996 11.3905 37.3792 12.6686 38.9576 12.6686Z" fill="#FCAB10"/>
<path d="M127.958 41.4395C128.928 41.4395 129.715 40.6538 129.715 39.6846C129.715 38.7154 128.928 37.9297 127.958 37.9297C126.988 37.9297 126.201 38.7154 126.201 39.6846C126.201 40.6538 126.988 41.4395 127.958 41.4395Z" fill="#FCAB10"/>
<path d="M110.498 67.1887C109.51 67.7027 108.261 67.546 107.436 66.7249C106.931 66.2204 106.674 65.5498 106.674 64.8823C106.674 64.2148 106.931 63.5442 107.436 63.0397L107.656 62.8203C108.973 63.9735 109.971 65.4746 110.498 67.1887Z" fill="#FCAB10"/>
<path d="M121.909 54.8776C121.909 55.545 121.658 56.2157 121.147 56.7202L121.075 56.7923L111.425 66.4285C110.813 64.7206 109.781 63.2133 108.447 62.0319L117.454 53.0349C118.468 52.0196 120.134 52.0196 121.15 53.0349C121.661 53.5395 121.912 54.2101 121.912 54.8776H121.909Z" fill="#FCAB10"/>
<path d="M107.654 17.0157L107.434 16.7964C106.418 15.781 106.418 14.1233 107.434 13.1111C107.939 12.6003 108.611 12.3496 109.279 12.3496C109.693 12.3496 110.113 12.4499 110.496 12.6473C109.969 14.3615 108.971 15.8688 107.654 17.0157Z" fill="#FCAB10"/>
<path d="M121.146 26.8013C120.635 27.3121 119.97 27.5628 119.301 27.5628C118.633 27.5628 117.956 27.3121 117.45 26.8013L108.443 17.8044C109.777 16.6293 110.809 15.1219 111.427 13.4141L120.613 22.5833L121.146 23.1161C122.163 24.1314 122.163 25.7891 121.146 26.8013Z" fill="#FCAB10"/>
<path d="M58.079 7.20703C58.4147 8.00927 58.5998 8.88671 58.5998 9.81116C58.5998 10.7356 58.4147 11.6162 58.079 12.4216H55.1676C53.7307 12.4216 52.5605 11.2464 52.5605 9.81116C52.5605 9.09354 52.8523 8.44485 53.3292 7.97479C53.7998 7.49847 54.4523 7.20703 55.1676 7.20703H58.079Z" fill="#FCAB10"/>
<path d="M90.6334 9.81116C90.6334 10.7137 90.7464 11.588 90.9597 12.4216H59.2734C59.5652 11.6036 59.7221 10.7231 59.7221 9.81116C59.7221 8.89925 59.5652 8.02493 59.2797 7.20703H90.9534C90.7464 8.0406 90.6334 8.91491 90.6334 9.81116Z" fill="#FCAB10"/>
<path d="M95.9304 9.81116C95.9304 10.5288 95.6386 11.1775 95.1617 11.6538C94.6849 12.1301 94.0355 12.4216 93.317 12.4216H92.1217C91.8802 11.5911 91.7578 10.7137 91.7578 9.81116C91.7578 8.90865 91.8802 8.03434 92.1217 7.20703H93.317C94.7539 7.20703 95.9304 8.37905 95.9304 9.81116Z" fill="#FCAB10"/>
<path d="M90.6334 70.0284C90.6334 71.4919 90.9315 72.8895 91.4648 74.1618H68.2867C66.8499 74.1618 65.6797 72.9898 65.6797 71.5577C65.6797 70.84 65.9714 70.1851 66.442 69.715C66.9189 69.245 67.5683 68.9473 68.2867 68.9473H90.6899C90.6522 69.3045 90.6334 69.6649 90.6334 70.0284Z" fill="#FCAB10"/>
<path d="M105.618 71.5577C105.618 72.2753 105.326 72.924 104.856 73.4003C104.379 73.8703 103.73 74.1618 103.011 74.1618H92.699C92.0935 72.9114 91.7578 71.5075 91.7578 70.0284C91.7578 69.6649 91.7798 69.3014 91.8206 68.9473H103.014C104.451 68.9473 105.621 70.1224 105.621 71.5577H105.618Z" fill="#FCAB10"/>
<path d="M104.319 18.4476V18.9177C103.381 19.2217 102.383 19.3877 101.348 19.3877C100.438 19.3877 99.5599 19.2593 98.7285 19.0242V18.4476C98.7285 16.9058 99.9834 15.6523 101.521 15.6523C102.289 15.6523 102.989 15.9657 103.494 16.4702C104.005 16.981 104.319 17.6736 104.319 18.4476Z" fill="#FCAB10"/>
<path d="M104.319 20.0898V33.3988C103.463 33.029 102.512 32.8222 101.521 32.8222C100.529 32.8222 99.585 33.0227 98.7285 33.3988V20.1839C99.5693 20.3969 100.445 20.5098 101.348 20.5098C102.38 20.5098 103.378 20.3656 104.319 20.0898Z" fill="#FCAB10"/>
<path d="M101.521 33.9434C102.537 33.9434 103.485 34.1941 104.319 34.639V45.1997C103.485 45.6353 102.537 45.8891 101.521 45.8891C100.504 45.8891 99.563 45.6416 98.7285 45.1997V34.639C99.563 34.1972 100.51 33.9434 101.521 33.9434Z" fill="#FCAB10"/>
<path d="M104.319 46.4277V59.7492C103.378 59.4734 102.38 59.3293 101.348 59.3293C100.445 59.3293 99.5693 59.4421 98.7285 59.6552V46.4309C99.585 46.8069 100.529 47.0075 101.521 47.0075C102.512 47.0075 103.459 46.8007 104.319 46.4309V46.4277Z" fill="#FCAB10"/>
<path d="M101.344 60.4492C102.383 60.4492 103.38 60.6184 104.315 60.9193V63.2038C104.315 64.7393 103.054 65.9991 101.517 65.9991C99.9795 65.9991 98.7246 64.7393 98.7246 63.2038V60.8127C99.556 60.5777 100.434 60.4492 101.344 60.4492Z" fill="#FCAB10"/>
<path d="M45.3003 36.3308H35.5937L36.7545 30.8468H52.3843C53.3317 30.8468 53.9152 30.3705 54.1286 29.4241L55.3396 23.6267C55.4462 23.1002 55.3741 22.6803 55.1262 22.3607C54.8784 22.0473 54.4768 21.8906 53.9152 21.8906H30.7372C30.6807 21.8906 30.6243 21.8906 30.5678 21.9032H20.9396C19.8164 21.9032 18.8972 22.8213 18.8972 23.9432V24.4258C18.8972 25.5477 19.8164 26.4659 20.9396 26.4659H33.4384C33.9309 26.4659 34.3294 26.8638 34.3294 27.3558V27.6253C34.3294 28.1173 33.9309 28.5153 33.4384 28.5153H27.8917L27.4023 30.8123H11.0541C9.93094 30.8123 9.01172 31.7305 9.01172 32.8524V33.335C9.01172 34.4569 9.93094 35.3751 11.0541 35.3751H32.1678C32.6603 35.3813 33.0525 35.7793 33.0525 36.2713V36.5345C33.0525 37.0265 32.6541 37.4245 32.1615 37.4245H25.9968L24.9992 42.1126H15.1733C14.0502 42.1126 13.1309 43.0245 13.1309 44.1526V44.6289C13.1309 45.754 14.0502 46.6721 15.1733 46.6721H30.0188C30.5113 46.6721 30.916 47.0701 30.916 47.5621V47.8253C30.916 48.3173 30.5113 48.7216 30.0188 48.7216H23.5968L21.7615 57.3581C21.6549 57.8846 21.727 58.3108 21.9749 58.6242C22.2227 58.9438 22.6243 59.1005 23.1858 59.1005H29.3035C30.2572 59.1005 30.8345 58.6242 31.0478 57.6778L33.8462 44.4472H43.9231C44.8705 44.4472 45.4541 43.9771 45.6611 43.0245L46.7152 38.0732C46.8219 37.5467 46.7498 37.1268 46.5082 36.8072C46.2603 36.4938 45.8588 36.3371 45.2909 36.3371L45.3003 36.3308Z" fill="#F90A08"/>
<path d="M91.083 22.3607C90.854 22.0473 90.4712 21.8906 89.9441 21.8906H84.1559C83.2649 21.8906 82.7191 22.3607 82.5245 23.3133L78.0226 45.6599L66.6877 22.9968C66.2892 22.2635 65.712 21.8938 64.9559 21.8938H59.0673C58.1763 21.8938 57.6304 22.3638 57.4296 23.3165L50.65 57.3581C50.5559 57.8846 50.6155 58.3108 50.8508 58.6242C51.0798 58.9438 51.4626 59.1005 51.9896 59.1005H57.7779C58.6689 59.1005 59.2147 58.6242 59.4092 57.6778L63.8673 34.9113L75.3465 57.9912C75.7449 58.7307 76.3222 59.1005 77.0783 59.1005H82.8728C83.7575 59.1005 84.3034 58.6242 84.5041 57.6778L91.2838 23.6298C91.3779 23.1034 91.312 22.6835 91.083 22.3638V22.3607Z" fill="#F90A08"/>
<path d="M15.3246 21.9004H5.75915C4.63119 21.9004 3.7168 22.8138 3.7168 23.9404V24.4199C3.7168 25.5466 4.63119 26.46 5.75915 26.46H15.3246C16.4526 26.46 17.367 25.5466 17.367 24.4199V23.9404C17.367 22.8138 16.4526 21.9004 15.3246 21.9004Z" fill="#F90A08"/>
<path d="M2.93221 30.8066H4.50084C5.62711 30.8066 6.54319 31.7217 6.54319 32.8467V33.3293C6.54319 34.4543 5.62711 35.3693 4.50084 35.3693H2.92907C1.8028 35.3693 0.886719 34.4543 0.886719 33.3293V32.8467C0.886719 31.7217 1.8028 30.8066 2.92907 30.8066H2.93221Z" fill="#F90A08"/>
<path d="M110.929 9.81182C110.929 10.7989 110.778 11.7485 110.496 12.6478C109.969 14.362 108.971 15.8693 107.654 17.0163C106.694 17.8624 105.561 18.511 104.315 18.9216C103.377 19.2255 102.38 19.3916 101.344 19.3916C100.435 19.3916 99.5563 19.2631 98.7249 19.0281C95.5343 18.1256 93.0151 15.6123 92.1178 12.4222C91.8763 11.5918 91.7539 10.7143 91.7539 9.81182C91.7539 8.9093 91.8763 8.03499 92.1178 7.20769C93.2504 3.18712 96.9523 0.238281 101.344 0.238281C106.637 0.238281 110.929 4.52209 110.929 9.81182Z" fill="#FCAB10"/>
<path d="M110.93 70.029C110.93 75.3156 106.641 79.6026 101.345 79.6026C97.5304 79.6026 94.2394 77.3776 92.699 74.1624C92.0935 72.9121 91.7578 71.5081 91.7578 70.029C91.7578 69.6655 91.7798 69.302 91.8206 68.9479C92.2566 65.0495 95.0457 61.8563 98.7288 60.8127C99.5602 60.5777 100.439 60.4492 101.348 60.4492C102.387 60.4492 103.384 60.6184 104.319 60.9193C105.565 61.3267 106.697 61.9785 107.657 62.8183C108.975 63.9715 109.973 65.4726 110.5 67.1867C110.779 68.083 110.933 69.0356 110.933 70.0259L110.93 70.029Z" fill="#FCAB10"/>
<path d="M107.497 39.9143C107.497 42.205 106.208 44.195 104.316 45.1978C103.481 45.6333 102.534 45.8872 101.517 45.8872C100.501 45.8872 99.5598 45.6396 98.7253 45.1978C96.8304 44.195 95.541 42.205 95.541 39.9143C95.541 37.6235 96.8304 35.6336 98.7253 34.6371C99.5598 34.1952 100.507 33.9414 101.517 33.9414C102.528 33.9414 103.481 34.1921 104.316 34.6371C106.205 35.6399 107.497 37.6298 107.497 39.9143Z" fill="#FCAB10"/>
<path d="M58.6022 9.81105C58.6022 10.7355 58.4171 11.6161 58.0814 12.4214C57.0618 14.8689 54.643 16.5893 51.8226 16.5893C48.0767 16.5893 45.043 13.5527 45.043 9.81105C45.043 6.06938 48.0767 3.03906 51.8226 3.03906C54.643 3.03906 57.0618 4.76575 58.0814 7.20692C58.4171 8.00915 58.6022 8.8866 58.6022 9.81105Z" fill="#FCAB10"/>
</svg>
